<svg id="Layer_1" data-name="Layer 1" xmlns="http://www.w3.org/2000/svg" viewBox="0 0 49.75 34.29"><defs><style>.cls-1{fill:none;}.cls-2{opacity:0.68;}</style></defs><title>شوية-كيمياء</title><path class="cls-1" d="M72,13V37H48V15.66H71.09c.12,0,.2-.09.25-.27a3.51,3.51,0,0,0,.07-.85,4.38,4.38,0,0,0-.06-.84c0-.18-.13-.27-.26-.27H48V13Z" transform="translate(-39.13 -2.71)"/><path d="M47.61,21.22a11.48,11.48,0,0,0-1.58,12l-1.28.6A1.58,1.58,0,0,1,42.55,32l1.72-6.69-2-4.32-.71.34a.79.79,0,1,1-.67-1.44l5.74-2.68a.81.81,0,0,1,1.06.39.79.79,0,0,1-.39,1.05l-.71.33Z" transform="translate(-39.13 -2.71)"/><path d="M43.58,8.08A1.36,1.36,0,0,0,43,7.79a.49.49,0,0,0-.32.21,3,3,0,0,0-.35.51,1.34,1.34,0,0,0-.47-.45,1.16,1.16,0,0,0-.57-.27q-.19,0-.48.42a2.65,2.65,0,0,0-.36.67,2.7,2.7,0,0,0,.53.44,3.63,3.63,0,0,0,.61.36,1.76,1.76,0,0,0,.31-.31,2.75,2.75,0,0,0,.31-.44,2.47,2.47,0,0,0,.52.42,3.06,3.06,0,0,0,.57.33,2.34,2.34,0,0,0,.5-.55A1,1,0,0,0,44,8.54C44,8.43,43.86,8.28,43.58,8.08Z" transform="translate(-39.13 -2.71)"/><path d="M74.51,11.56,72.59,12c0,.06.07.22.16.48s.17.53.24.8a6.49,6.49,0,0,1-1,.13l-.91,0H44.16a.73.73,0,0,1-.5-.16.94.94,0,0,1-.19-.56q-.11-1.21-.12-2.55l-.1-.08a4.8,4.8,0,0,0-.86.1,7.9,7.9,0,0,0-.83.2.7.7,0,0,0-.13.18l-.12.22c-.47.25-.82.46-1.06.61a3.3,3.3,0,0,0-.74.72,1.78,1.78,0,0,0,.06,2.27,2.31,2.31,0,0,0,1,.66,3.17,3.17,0,0,0,1.54-.44,1.62,1.62,0,0,0,.85.82,3.12,3.12,0,0,0,1.22.24H71.09c.32,0,.62,0,.91,0s.61,0,.9-.07a8.6,8.6,0,0,0,1.33-.25,2.89,2.89,0,0,0,.37-1,5.43,5.43,0,0,0,.14-1.22A5.2,5.2,0,0,0,74.51,11.56Zm-33.4,1.36a1.31,1.31,0,0,1-.58-.11,1.57,1.57,0,0,1,.42-.35,3.77,3.77,0,0,1,.57-.29c0,.25,0,.48.07.71Z" transform="translate(-39.13 -2.71)"/><path d="M72.16,10.49A1.92,1.92,0,0,1,72,9.66a2.65,2.65,0,0,1,.06-.58h.42a1.76,1.76,0,0,0,.09.59.28.28,0,0,0,.24.16.36.36,0,0,0,.35-.24A2.53,2.53,0,0,0,73.32,9l.41.09q0,.63.24.63a.21.21,0,0,0,.2-.15A1.67,1.67,0,0,0,74.26,9h.42v.19a2.59,2.59,0,0,1-.18,1,.59.59,0,0,1-.58.45.49.49,0,0,1-.48-.29h0c-.15.37-.38.56-.68.56A.59.59,0,0,1,72.16,10.49Z" transform="translate(-39.13 -2.71)"/><path d="M74,16.79a1.34,1.34,0,0,0-.6-.29.48.48,0,0,0-.33.21,3,3,0,0,0-.34.51,1.55,1.55,0,0,0-.47-.45L72,16.6a.62.62,0,0,0-.3-.1q-.2,0-.48.42a2.65,2.65,0,0,0-.36.67,2.7,2.7,0,0,0,.53.44,5.52,5.52,0,0,0,.61.37,2.41,2.41,0,0,0,.31-.32,2.75,2.75,0,0,0,.31-.44,2.76,2.76,0,0,0,.52.42,3.53,3.53,0,0,0,.58.34,2.45,2.45,0,0,0,.49-.56c.19-.27.28-.46.26-.58S74.3,17,74,16.79Z" transform="translate(-39.13 -2.71)"/><path d="M88.54,11.56,86.62,12l.18.54c.1.3.19.6.26.9a2.59,2.59,0,0,1-.64.11c-.51,0-.77-.31-.77-.93a2.16,2.16,0,0,1,0-.31l-1-.15a2.11,2.11,0,0,1-.47,1,1,1,0,0,1-.73.32c-.54,0-.82-.46-.86-1.37h-1a1.43,1.43,0,0,1-.35.88,1.1,1.1,0,0,1-.6.35,3.85,3.85,0,0,1-.82.07h0l-.56,0A3.45,3.45,0,0,0,79,12.29a2.14,2.14,0,0,0-.59-.87,1.34,1.34,0,0,0-.91-.33,1.56,1.56,0,0,0-1,.4,3.18,3.18,0,0,0-.82,1,2.54,2.54,0,0,0-.33,1.21,1.4,1.4,0,0,0,.48,1.09,2.54,2.54,0,0,0,1.19.6,13.77,13.77,0,0,1-1.51,1.8l-.1.1-.09.1a4.11,4.11,0,0,0,.85.7,4.82,4.82,0,0,0,1,.53,11.77,11.77,0,0,0,1-1.38,8.74,8.74,0,0,0,.78-1.67,6.19,6.19,0,0,0,.93.07h0a2.72,2.72,0,0,0,1-.16,2,2,0,0,0,.81-.68h.11a1.6,1.6,0,0,0,.64.67,1.84,1.84,0,0,0,.89.23,1.81,1.81,0,0,0,1.6-.9H85a1.62,1.62,0,0,0,.7.65,2.14,2.14,0,0,0,1,.23,3.64,3.64,0,0,0,1.58-.39,2.83,2.83,0,0,0,.37-1,5.9,5.9,0,0,0,.13-1.21A5,5,0,0,0,88.54,11.56ZM77.82,13.5a3.86,3.86,0,0,1-.6,0c-.36,0-.56-.11-.61-.2a.28.28,0,0,1,.14-.26.63.63,0,0,1,.35-.09,1.34,1.34,0,0,1,.59.16,1.66,1.66,0,0,1,.52.42Z" transform="translate(-39.13 -2.71)"/><path d="M85.56,3.08a2.14,2.14,0,0,1,.31,1.22,2,2,0,0,1-1,.61,13.25,13.25,0,0,1-1.77.51A1.92,1.92,0,0,1,83,5a2.41,2.41,0,0,1,0-.41c.29-.06.65-.15,1.09-.28a1.73,1.73,0,0,1-.15-.66A.88.88,0,0,1,84.19,3a1,1,0,0,1,.69-.27A.81.81,0,0,1,85.56,3.08Zm-.34.83a.38.38,0,0,0-.11-.28.32.32,0,0,0-.23-.1.35.35,0,0,0-.27.11.49.49,0,0,0-.09.3,1.12,1.12,0,0,0,0,.24A2.57,2.57,0,0,0,85.22,3.91Z" transform="translate(-39.13 -2.71)"/><path d="M83.48,7.07a1.78,1.78,0,0,1-.18-.83,2.63,2.63,0,0,1,.07-.58h.42a1.53,1.53,0,0,0,.09.59.28.28,0,0,0,.24.16.36.36,0,0,0,.35-.24,2.53,2.53,0,0,0,.17-.64l.4.09c0,.42,0,.63.25.63a.23.23,0,0,0,.2-.15,1.49,1.49,0,0,0,.08-.57H86v.19a2.59,2.59,0,0,1-.17,1,.61.61,0,0,1-.58.45.49.49,0,0,1-.48-.29h0c-.16.37-.39.56-.68.56A.58.58,0,0,1,83.48,7.07Z" transform="translate(-39.13 -2.71)"/><path d="M85,8.06a1.28,1.28,0,0,0-.59-.27.43.43,0,0,0-.3.19,2.92,2.92,0,0,0-.32.44,1.42,1.42,0,0,0-.18.4,3.52,3.52,0,0,0,.52.42,3.84,3.84,0,0,0,.57.35,2.4,2.4,0,0,0,.47-.53c.18-.26.27-.45.25-.56S85.28,8.25,85,8.06Zm1,1.67a1.22,1.22,0,0,0-.61-.3.52.52,0,0,0-.34.21,2.31,2.31,0,0,0-.34.5,1.76,1.76,0,0,0-.5-.47,1,1,0,0,0-.57-.24c-.13,0-.29.17-.48.44a2.12,2.12,0,0,0-.34.64,2.85,2.85,0,0,0,.54.45,3.53,3.53,0,0,0,.6.35,1.38,1.38,0,0,0,.31-.3,2.37,2.37,0,0,0,.31-.44,3.64,3.64,0,0,0,.55.43,3,3,0,0,0,.55.31,2,2,0,0,0,.49-.53c.19-.28.28-.47.26-.59S86.3,9.92,86,9.73Z" transform="translate(-39.13 -2.71)"/><path d="M60.51,28.25a3.56,3.56,0,0,1-.18.79,4.13,4.13,0,0,1-.28.68,12.79,12.79,0,0,0-1.46.2,15.46,15.46,0,0,0-1.56.34,1.1,1.1,0,0,1-.15-.42,3.07,3.07,0,0,1-.06-.57.66.66,0,0,1,0-.28,6.56,6.56,0,0,1,.81-.34,1.44,1.44,0,0,1-.46-1,1.39,1.39,0,0,1,.25-.79,2,2,0,0,1,.66-.62A1.48,1.48,0,0,1,58.9,26a1,1,0,0,1,.48.12.84.84,0,0,1,.35.35,1,1,0,0,1,.12.48,1.09,1.09,0,0,1-.2.65,1.72,1.72,0,0,0-.66-.13.93.93,0,0,0-.44.09.37.37,0,0,0-.19.27.62.62,0,0,0,0,.28,1.46,1.46,0,0,0,.2.33,8.09,8.09,0,0,1,1.84-.24Z" transform="translate(-39.13 -2.71)"/><path d="M67,31.19a1.36,1.36,0,0,0-.61-.29.45.45,0,0,0-.32.21,3,3,0,0,0-.35.51,1.55,1.55,0,0,0-.47-.45,1.22,1.22,0,0,0-.58-.27q-.19,0-.48.42a2.65,2.65,0,0,0-.36.67,3,3,0,0,0,.53.44,4.07,4.07,0,0,0,.61.36,1.74,1.74,0,0,0,.32-.31,3.58,3.58,0,0,0,.31-.44,2.37,2.37,0,0,0,.51.42,3.09,3.09,0,0,0,.58.33,2.15,2.15,0,0,0,.49-.55,1.12,1.12,0,0,0,.27-.59C67.38,31.54,67.23,31.39,67,31.19Z" transform="translate(-39.13 -2.71)"/><path d="M80.28,31.19a1.36,1.36,0,0,0-.61-.29.45.45,0,0,0-.32.21,3,3,0,0,0-.35.51,1.44,1.44,0,0,0-.47-.45A1.22,1.22,0,0,0,78,30.9q-.18,0-.48.42a2.65,2.65,0,0,0-.36.67,3,3,0,0,0,.53.44,4.07,4.07,0,0,0,.61.36,1.74,1.74,0,0,0,.32-.31,3.58,3.58,0,0,0,.31-.44,2.37,2.37,0,0,0,.51.42,3.09,3.09,0,0,0,.58.33,2.15,2.15,0,0,0,.49-.55,1.12,1.12,0,0,0,.27-.59C80.7,31.54,80.55,31.39,80.28,31.19Z" transform="translate(-39.13 -2.71)"/><path d="M88.88,23l-.16-.12L84.9,24.3v1.93a6,6,0,0,1,1.57,1.5c-.66.06-1.47.1-2.42.1H81.8a1.71,1.71,0,0,1-.93-.18c-.18-.11-.26-.34-.26-.68a1.86,1.86,0,0,1,0-.26l-1-.16a1.92,1.92,0,0,1-1,1,3.85,3.85,0,0,1-1.55.27H74.87a.7.7,0,0,1-.54-.2A1.9,1.9,0,0,1,74,27a2.23,2.23,0,0,0-.63-1.07,1.47,1.47,0,0,0-1-.4,1.39,1.39,0,0,0-.85.26,5.53,5.53,0,0,0-.77.77,9.23,9.23,0,0,1-.63.68,2.32,2.32,0,0,1-.67.42,2.28,2.28,0,0,1-.94.18,1.76,1.76,0,0,1-.94-.18c-.18-.11-.26-.34-.26-.68a1.86,1.86,0,0,1,0-.26l-1-.16a1.92,1.92,0,0,1-1,1,3.85,3.85,0,0,1-1.55.27,3.74,3.74,0,0,1-.55,0q0-.77,0-1.23c0-1,0-2.09-.11-3.28l-1.94.1.08,2.44a38.2,38.2,0,0,0,.18,3.9,3.75,3.75,0,0,0,1,.26,8.73,8.73,0,0,0,1.27.09,6.07,6.07,0,0,0,1.42-.17,3.34,3.34,0,0,0,1.31-.67h.1a2.11,2.11,0,0,0,.81.62,2.79,2.79,0,0,0,1.06.22,3,3,0,0,0,1.18-.23,2.73,2.73,0,0,0,.93-.66,4.36,4.36,0,0,0,1,.7,2.29,2.29,0,0,0,1,.26,1.28,1.28,0,0,0,1.07-.54,1.64,1.64,0,0,0,1.21.47h2.24a6.15,6.15,0,0,0,1.43-.17,3.3,3.3,0,0,0,1.3-.67H80a2.08,2.08,0,0,0,.8.62,2.78,2.78,0,0,0,1,.22h2.25c.88,0,1.62,0,2.23-.09a13,13,0,0,0,1.78-.28,4.37,4.37,0,0,0,.2-.62,2.47,2.47,0,0,0,.06-.56,5.49,5.49,0,0,0-1.08-3L88.88,25Zm-16,5a1.77,1.77,0,0,1-.41.05,2.7,2.7,0,0,1-.62-.08,1.41,1.41,0,0,1-.53-.22,1.82,1.82,0,0,1,1-.26,1.29,1.29,0,0,1,.61.12.37.37,0,0,1,.23.29A.38.38,0,0,1,72.9,28Z" transform="translate(-39.13 -2.71)"/><path class="cls-2" d="M54.81,29.17,46,33.26a11.48,11.48,0,0,1,1.58-12l1,2.11,6.23,3a1.64,1.64,0,0,1,.76.76A1.59,1.59,0,0,1,54.81,29.17Z" transform="translate(-39.13 -2.71)"/></svg>